<svg width="20" height="20" viewBox="0 0 20 20" fill="none" xmlns="http://www.w3.org/2000/svg">
<g id="calendar">
<path id="Vector" d="M17.5 8.33335H2.5M13.3333 1.66669V5.00002M6.66667 1.66669V5.00002M6.5 18.3334H13.5C14.9 18.3334 15.6 18.3334 16.135 18.0609C16.6054 17.8212 16.9878 17.4387 17.2275 16.9684C17.5 16.4334 17.5 15.7334 17.5 14.3334V7.33335C17.5 5.93335 17.5 5.23335 17.2275 4.69835C16.9878 4.22797 16.6054 3.84553 16.135 3.60585C15.6 3.33335 14.9 3.33335 13.5 3.33335H6.5C5.1 3.33335 4.4 3.33335 3.865 3.60585C3.39462 3.84553 3.01218 4.22797 2.7725 4.69835C2.5 5.23335 2.5 5.93335 2.5 7.33335V14.3334C2.5 15.7334 2.5 16.4334 2.7725 16.9684C3.01218 17.4387 3.39462 17.8212 3.865 18.0609C4.4 18.3334 5.1 18.3334 6.5 18.3334Z" stroke="#1F3967" stroke-width="2" stroke-linecap="round" stroke-linejoin="round"/>
</g>
</svg>
