<svg width="20" height="20" viewBox="0 0 20 20" fill="none" xmlns="http://www.w3.org/2000/svg">
<g id="columns-03">
<path id="Vector" d="M7.5 2.5V17.5M12.5 2.5V17.5M6.5 2.5H13.5C14.9 2.5 15.6 2.5 16.135 2.7725C16.6054 3.01218 16.9878 3.39462 17.2275 3.865C17.5 4.4 17.5 5.1 17.5 6.5V13.5C17.5 14.9 17.5 15.6 17.2275 16.135C16.9878 16.6054 16.6054 16.9878 16.135 17.2275C15.6 17.5 14.9 17.5 13.5 17.5H6.5C5.1 17.5 4.4 17.5 3.865 17.2275C3.39462 16.9878 3.01218 16.6054 2.7725 16.135C2.5 15.6 2.5 14.9 2.5 13.5V6.5C2.5 5.1 2.5 4.4 2.7725 3.865C3.01218 3.39462 3.39462 3.01218 3.865 2.7725C4.4 2.5 5.1 2.5 6.5 2.5Z" stroke="#1F3967" stroke-width="2" stroke-linecap="round" stroke-linejoin="round"/>
</g>
</svg>
