<svg width="14" height="14" viewBox="0 0 14 14" fill="none" xmlns="http://www.w3.org/2000/svg">
<g id="copy" clip-path="url(#clip0_973_5625)">
<path id="Vector" d="M11.6667 5.25H6.41667C5.77233 5.25 5.25 5.77233 5.25 6.41667V11.6667C5.25 12.311 5.77233 12.8333 6.41667 12.8333H11.6667C12.311 12.8333 12.8333 12.311 12.8333 11.6667V6.41667C12.8333 5.77233 12.311 5.25 11.6667 5.25Z" stroke="#43597F" stroke-linecap="round" stroke-linejoin="round"/>
<path id="Vector_2" d="M2.91663 8.74996H2.33329C2.02387 8.74996 1.72713 8.62704 1.50833 8.40825C1.28954 8.18946 1.16663 7.89271 1.16663 7.58329V2.33329C1.16663 2.02387 1.28954 1.72713 1.50833 1.50833C1.72713 1.28954 2.02387 1.16663 2.33329 1.16663H7.58329C7.89271 1.16663 8.18946 1.28954 8.40825 1.50833C8.62704 1.72713 8.74996 2.02387 8.74996 2.33329V2.91663" stroke="#43597F" stroke-linecap="round" stroke-linejoin="round"/>
</g>
<defs>
<clipPath id="clip0_973_5625">
<rect width="14" height="14" fill="white"/>
</clipPath>
</defs>
</svg>
