<svg width="20" height="20" viewBox="0 0 20 20" fill="none" xmlns="http://www.w3.org/2000/svg">
<g id="save-03">
<path 
id="Vector" 
d="M5.83333 2.5H12.2292C12.6367 2.5 12.84 2.5 13.0317 2.54583C13.2017 2.5875 13.365 2.65417 13.5142 2.74583C13.6817 2.84833 13.8258 2.9925 14.1142 3.28083L16.7192 5.88583C17.0075 6.17417 17.1517 6.31833 17.2542 6.48583C17.3458 6.63583 17.4125 6.7975 17.4542 6.96833C17.5 7.16 17.5 7.36333 17.5 7.77083V14.1667M10.4167 8.33333H7.16667C6.7 8.33333 6.46667 8.33333 6.28833 8.2425C6.13154 8.16261 6.00406 8.03513 5.92417 7.87833C5.83333 7.7 5.83333 7.46667 5.83333 7V5.41667M11.25 17.5V13.8333C11.25 13.3667 11.25 13.1333 11.1592 12.955C11.0793 12.7982 10.9518 12.6707 10.795 12.5908C10.6167 12.5 10.3833 12.5 9.91667 12.5H7.16667C6.7 12.5 6.46667 12.5 6.28833 12.5908C6.13154 12.6707 6.00406 12.7982 5.92417 12.955C5.83333 13.1333 5.83333 13.3667 5.83333 13.8333V17.5M14.5833 8.46917V14.8333C14.5833 15.7667 14.5833 16.2333 14.4017 16.59C14.2419 16.9036 13.9869 17.1585 13.6733 17.3183C13.3167 17.5 12.85 17.5 11.9167 17.5H5.16667C4.23333 17.5 3.76667 17.5 3.41 17.3183C3.09641 17.1585 2.84145 16.9036 2.68167 16.59C2.5 16.2333 2.5 15.7667 2.5 14.8333V8.08333C2.5 7.15 2.5 6.68333 2.68167 6.32667C2.84145 6.01308 3.09641 5.75812 3.41 5.59833C3.76667 5.41667 4.23333 5.41667 5.16667 5.41667H11.5308C11.735 5.41667 11.8367 5.41667 11.9325 5.44C12.0178 5.46041 12.0994 5.49415 12.1742 5.54C12.2575 5.59083 12.33 5.66333 12.4742 5.80667L14.1925 7.52583C14.3367 7.67 14.4092 7.7425 14.4608 7.82583C14.5058 7.90083 14.54 7.9825 14.5608 8.0675C14.5833 8.16333 14.5833 8.265 14.5833 8.46917Z" 
stroke="#AEB8C8" 
stroke-width="2" 
stroke-linecap="round" 
stroke-linejoin="round"/>
</g>
</svg>
