<svg width="80" height="40" viewBox="0 0 80 40" fill="none" xmlns="http://www.w3.org/2000/svg">
<g id="Header">
<path id="Vector" d="M43.2143 19.0375L51.4058 7.89893C51.7729 7.39975 51.8343 6.73971 51.5662 6.17638C51.2984 5.61306 50.7562 5.26318 50.1513 5.26318H43.2019L37.4322 12.5898V6.14448C37.1207 5.40164 36.3603 5.32291 35.9396 5.75389L28.2681 12.7415V32.6316H34.8458C36.2741 32.6316 37.4322 31.4286 37.4322 29.9443V26.1123L35.9945 24.2947V29.9443C35.9945 30.6033 35.4804 31.1374 34.8461 31.1374H29.7058V13.3662L35.9942 7.79645V19.557L37.4319 21.5558V14.9497L43.8832 6.75769H50.2173C50.3006 6.84151 50.3156 6.92092 50.263 6.99218L41.3876 19.0612L50.0549 30.2605C50.2398 30.4995 50.1611 30.7394 50.1186 30.8313C50.0762 30.9236 49.9455 31.1378 49.6506 31.1378H43.958L34.5567 18.8834L35.3919 17.9482L35.3818 15.7631L32.6614 18.8094L43.2656 32.6316H50.1268C50.2049 32.6316 50.2816 32.6112 50.3505 32.5743C51.7145 31.8389 51.9398 30.3118 51.1756 29.3243L43.2143 19.0372V19.0375Z" fill="url(#paint0_linear_681_3001)"/>
</g>
<defs>
<linearGradient id="paint0_linear_681_3001" x1="28.2212" y1="17.4697" x2="51.6846" y2="17.4697" gradientUnits="userSpaceOnUse">
<stop stop-color="#1E3968"/>
<stop offset="1" stop-color="#1586FF"/>
</linearGradient>
</defs>
</svg>
