<svg width="130" height="32" viewBox="0 0 130 32" fill="none" xmlns="http://www.w3.org/2000/svg">
<g id="Vector">
<path d="M0 31.571V2.18489L5.98658 0.683117V18.6648L15.8122 9.30982H22.5839L11.8404 19.5173L23.242 31.5654H15.5986L5.98658 21.403V28.9627C5.98658 30.4023 4.79157 31.571 3.31946 31.571H0Z" fill="#0666EB"/>
<path d="M31.4049 31.955C29.7711 31.955 28.3336 31.6614 27.0809 31.0799C25.8282 30.4984 24.8525 29.691 24.154 28.6635C23.4555 27.636 23.1033 26.456 23.1033 25.118C23.1033 22.9839 23.9231 21.324 25.5742 20.1384C27.2195 18.9585 29.4825 18.3657 32.369 18.3657C34.3491 18.3657 36.2138 18.6649 37.9572 19.2633V17.6374C37.9572 16.3558 37.5473 15.3847 36.7333 14.7354C35.9193 14.0805 34.7243 13.7531 33.1483 13.7531C32.19 13.7531 31.1509 13.8999 30.0482 14.1991C28.9398 14.4983 27.6582 14.9613 26.2034 15.5879L24.0212 11.2746C25.8282 10.4785 27.5543 9.8801 29.1996 9.47925C30.8449 9.0784 32.496 8.8808 34.1586 8.8808C37.2183 8.8808 39.5967 9.59781 41.2998 11.0375C43.0028 12.4771 43.8572 14.504 43.8572 17.1236V28.9345C43.8572 30.3855 42.6564 31.5654 41.167 31.5654H37.9572V29.9846C37.0278 30.6677 36.0175 31.1646 34.9437 31.4807C33.8642 31.7912 32.6865 31.9493 31.4049 31.9493M28.7839 24.9881C28.7839 25.8406 29.1592 26.5181 29.9212 27.0149C30.6775 27.5118 31.682 27.7602 32.9347 27.7602C33.9219 27.7602 34.8398 27.6416 35.6884 27.3989C36.5313 27.1561 37.2875 26.7948 37.9572 26.3092V23.0629C37.2298 22.7806 36.4735 22.5661 35.6884 22.4249C34.9033 22.2838 34.0547 22.2104 33.1541 22.2104C31.7859 22.2104 30.7121 22.4588 29.9443 22.9557C29.1707 23.4525 28.7897 24.13 28.7897 24.9825" fill="#0666EB"/>
<path d="M56.9155 31.9944C54.82 31.9944 52.8802 31.729 51.1079 31.2039C49.3299 30.6789 47.7885 29.9167 46.478 28.9174L49.4511 25.0275C50.7616 25.88 52.0201 26.5236 53.2266 26.9527C54.4332 27.3818 55.6339 27.5907 56.829 27.5907C58.1683 27.5907 59.2363 27.3705 60.0387 26.9301C60.8412 26.4897 61.2395 25.9139 61.2395 25.1969C61.2395 24.6266 61.0144 24.1693 60.5641 23.8306C60.1138 23.4862 59.3922 23.2491 58.405 23.1023L54.0348 22.4643C51.766 22.1199 50.0457 21.4029 48.8796 20.3077C47.7134 19.2124 47.1304 17.7671 47.1304 15.9717C47.1304 14.5208 47.5171 13.273 48.2907 12.2342C49.0643 11.1954 50.1554 10.3824 51.564 9.80091C52.9784 9.2194 54.6583 8.92582 56.6096 8.92582C58.2722 8.92582 59.8944 9.1573 61.482 9.60896C63.0695 10.0663 64.559 10.7607 65.9618 11.7035L63.0811 15.5031C61.8283 14.7353 60.6333 14.182 59.5018 13.8376C58.3646 13.4932 57.2157 13.3239 56.0496 13.3239C54.9701 13.3239 54.1041 13.5215 53.4518 13.9223C52.7936 14.3232 52.4704 14.8482 52.4704 15.5031C52.4704 16.1016 52.7013 16.5702 53.1689 16.9146C53.6365 17.2589 54.4332 17.4961 55.5704 17.6429L59.8944 18.2865C62.1632 18.6026 63.8951 19.3027 65.0901 20.398C66.2851 21.4933 66.8797 22.9103 66.8797 24.6492C66.8797 26.072 66.441 27.3366 65.5692 28.4319C64.6975 29.5272 63.5141 30.3966 62.0304 31.0402C60.5467 31.6838 58.8437 32 56.9213 32" fill="#0666EB"/>
<path d="M69.847 31.571V2.12273L75.8336 0.383836V11.1503C77.554 9.64287 79.6784 8.88634 82.2128 8.88634C83.9908 8.88634 85.5553 9.2646 86.9062 10.0211C88.2571 10.7777 89.3135 11.8165 90.0698 13.1376C90.826 14.4587 91.2071 16.0056 91.2071 17.7727V28.9908C91.2071 30.4192 90.0236 31.571 88.5688 31.571H85.2262V18.6253C85.2262 17.1743 84.8048 16.0282 83.9562 15.187C83.1076 14.3458 81.9587 13.928 80.504 13.928C79.4821 13.928 78.5816 14.1199 77.7964 14.5039C77.0113 14.8878 76.3532 15.4354 75.8279 16.1468V28.9175C75.8279 30.3797 74.6155 31.5653 73.1203 31.5653H69.847V31.571Z" fill="#0666EB"/>
<path d="M98.718 6.66199C97.7886 6.66199 96.9861 6.33453 96.3165 5.67963C95.6468 5.02472 95.312 4.23996 95.312 3.33099C95.312 2.42203 95.6468 1.60339 96.3165 0.959778C96.9861 0.321808 97.7886 0 98.718 0C99.6475 0 100.485 0.321808 101.143 0.959778C101.795 1.60339 102.124 2.3938 102.124 3.33099C102.124 4.26819 101.795 5.02472 101.143 5.67963C100.485 6.33453 99.6821 6.66199 98.718 6.66199ZM95.7507 9.30984H101.737V28.8216C101.737 30.3403 100.479 31.571 98.9258 31.571H95.7507V9.30984Z" fill="#1F3967"/>
<path d="M116.92 31.9946C114.646 31.9946 112.596 31.4808 110.761 30.4589C108.925 29.4314 107.47 28.0538 106.39 26.3149C105.311 24.576 104.774 22.6283 104.774 20.4603C104.774 18.2923 105.305 16.3389 106.367 14.5887C107.43 12.8385 108.884 11.4497 110.737 10.4221C112.585 9.39462 114.646 8.88651 116.92 8.88651C119.195 8.88651 121.25 9.40027 123.103 10.4221C124.951 11.4497 126.405 12.8329 127.473 14.5887C128.536 16.3389 129.067 18.298 129.067 20.4603C129.067 22.6226 128.536 24.576 127.473 26.3149C126.411 28.0538 124.962 29.4314 123.126 30.4589C121.29 31.4864 119.224 31.9946 116.926 31.9946M116.926 26.9134C118.121 26.9134 119.189 26.6311 120.136 26.0609C121.083 25.4907 121.839 24.7172 122.405 23.7348C122.97 22.7525 123.253 21.6628 123.253 20.4659C123.253 19.269 122.97 18.1455 122.405 17.1745C121.839 16.209 121.077 15.4299 120.136 14.8484C119.189 14.2669 118.121 13.9733 116.926 13.9733C115.731 13.9733 114.698 14.2669 113.739 14.8484C112.775 15.4299 112.019 16.209 111.471 17.1745C110.916 18.1455 110.639 19.2408 110.639 20.4659C110.639 21.6911 110.916 22.7525 111.471 23.7348C112.025 24.7172 112.781 25.4907 113.739 26.0609C114.698 26.6311 115.766 26.9134 116.926 26.9134Z" fill="#1F3967"/>
</g>
</svg>
