<svg width="28" height="28" viewBox="0 0 28 28" fill="none" xmlns="http://www.w3.org/2000/svg">
<path d="M2.33337 8.16669L11.8591 14.8347C12.6305 15.3747 13.0162 15.6446 13.4357 15.7492C13.8063 15.8416 14.1938 15.8416 14.5644 15.7492C14.9839 15.6446 15.3696 15.3747 16.141 14.8347L25.6667 8.16669M7.93337 23.3334H20.0667C22.0269 23.3334 23.007 23.3334 23.7557 22.9519C24.4142 22.6163 24.9497 22.0809 25.2852 21.4223C25.6667 20.6736 25.6667 19.6935 25.6667 17.7334V10.2667C25.6667 8.3065 25.6667 7.32641 25.2852 6.57772C24.9497 5.91915 24.4142 5.38372 23.7557 5.04816C23.007 4.66669 22.0269 4.66669 20.0667 4.66669H7.93337C5.97319 4.66669 4.9931 4.66669 4.24441 5.04816C3.58584 5.38372 3.05041 5.91915 2.71485 6.57772C2.33337 7.32641 2.33337 8.3065 2.33337 10.2667V17.7334C2.33337 19.6935 2.33337 20.6736 2.71485 21.4223C3.05041 22.0809 3.58584 22.6163 4.24441 22.9519C4.9931 23.3334 5.97319 23.3334 7.93337 23.3334Z" stroke="#344054" stroke-width="2" stroke-linecap="round" stroke-linejoin="round"/>
</svg>
