<svg width="20" height="20" viewBox="0 0 20 20" fill="none" xmlns="http://www.w3.org/2000/svg">
<g id="Icon=share-02">
<path id="Vector" d="M5.83333 9.16667C5.05833 9.16667 4.67083 9.16667 4.35333 9.25167C3.92937 9.36514 3.54275 9.58822 3.23234 9.89848C2.92193 10.2087 2.69867 10.5953 2.585 11.0192C2.5 11.3375 2.5 11.725 2.5 12.5V13.5C2.5 14.9 2.5 15.6 2.7725 16.135C3.01218 16.6054 3.39462 16.9878 3.865 17.2275C4.4 17.5 5.1 17.5 6.5 17.5H13.5C14.9 17.5 15.6 17.5 16.135 17.2275C16.6054 16.9878 16.9878 16.6054 17.2275 16.135C17.5 15.6 17.5 14.9 17.5 13.5V12.5C17.5 11.725 17.5 11.3375 17.415 11.0192C17.3012 10.5954 17.0779 10.2091 16.7675 9.89896C16.4571 9.58885 16.0705 9.3659 15.6467 9.2525C15.3292 9.16667 14.9417 9.16667 14.1667 9.16667M13.3333 5.83333L10 2.5M10 2.5L6.66667 5.83333M10 2.5V12.5" stroke="#1F3967" stroke-width="2" stroke-linecap="round" stroke-linejoin="round"/>
</g>
</svg>
