<svg width="16" height="20" viewBox="0 0 16 20" fill="none" xmlns="http://www.w3.org/2000/svg">
<path d="M9.66683 9.16675H4.66683M6.3335 12.5001H4.66683M11.3335 5.83341H4.66683M14.6668 5.66675V14.3334C14.6668 15.7335 14.6668 16.4336 14.3943 16.9684C14.1547 17.4388 13.7722 17.8212 13.3018 18.0609C12.767 18.3334 12.067 18.3334 10.6668 18.3334H5.3335C3.93336 18.3334 3.2333 18.3334 2.69852 18.0609C2.22811 17.8212 1.84566 17.4388 1.60598 16.9684C1.3335 16.4336 1.3335 15.7335 1.3335 14.3334V5.66675C1.3335 4.26662 1.3335 3.56655 1.60598 3.03177C1.84566 2.56137 2.22811 2.17892 2.69852 1.93923C3.2333 1.66675 3.93336 1.66675 5.3335 1.66675H10.6668C12.067 1.66675 12.767 1.66675 13.3018 1.93923C13.7722 2.17892 14.1547 2.56137 14.3943 3.03177C14.6668 3.56655 14.6668 4.26662 14.6668 5.66675Z" stroke="#667085" stroke-width="2" stroke-linecap="round" stroke-linejoin="round"/>
</svg>
