<svg width="36" height="36" viewBox="0 0 36 36" fill="none" xmlns="http://www.w3.org/2000/svg">
<g opacity="0.3">
<path d="M17.9998 30.5C11.0963 30.5 5.49984 24.9035 5.49984 18C5.49984 11.0964 11.0963 5.49996 17.9998 5.49996C24.9034 5.49996 30.4998 11.0964 30.4998 18C30.4998 24.9035 24.9034 30.5 17.9998 30.5Z" stroke="#DC6803" stroke-width="1.66667"/>
</g>
<g opacity="0.1">
<path d="M17.1667 1.33333H18.8333C27.5778 1.33333 34.6667 8.42216 34.6667 17.1667V18.8333C34.6667 27.5778 27.5778 34.6667 18.8333 34.6667H17.1667C8.42216 34.6667 1.33333 27.5778 1.33333 18.8333V17.1667C1.33333 8.42216 8.42216 1.33333 17.1667 1.33333Z" stroke="#DC6803" stroke-width="1.66667"/>
</g>
<g clip-path="url(#clip0_3371_15924)">
<path d="M17.9998 14.6667V18.0001M17.9998 21.3334H18.0082M26.3332 18.0001C26.3332 22.6025 22.6022 26.3334 17.9998 26.3334C13.3975 26.3334 9.6665 22.6025 9.6665 18.0001C9.6665 13.3977 13.3975 9.66675 17.9998 9.66675C22.6022 9.66675 26.3332 13.3977 26.3332 18.0001Z" stroke="#DC6803" stroke-width="1.66667" stroke-linecap="round" stroke-linejoin="round"/>
</g>
<defs>
<clipPath id="clip0_3371_15924">
<rect width="20" height="20" fill="white" transform="translate(8 8)"/>
</clipPath>
</defs>
</svg>
