<svg width="20" height="20" viewBox="0 0 20 20" fill="none" xmlns="http://www.w3.org/2000/svg">
<g id="user-square" clip-path="url(#clip0_622_469)">
<path id="Vector" d="M3.33317 18.1809C3.83567 18.3334 4.51317 18.3334 5.6665 18.3334H14.3332C15.4865 18.3334 16.164 18.3334 16.6665 18.1809M3.33317 18.1809C3.22924 18.15 3.12828 18.1098 3.0315 18.0609C2.56112 17.8212 2.17868 17.4388 1.939 16.9684C1.6665 16.4334 1.6665 15.7334 1.6665 14.3334V5.66675C1.6665 4.26675 1.6665 3.56675 1.939 3.03175C2.17868 2.56136 2.56112 2.17893 3.0315 1.93925C3.5665 1.66675 4.2665 1.66675 5.6665 1.66675H14.3332C15.7332 1.66675 16.4332 1.66675 16.9682 1.93925C17.4386 2.17893 17.821 2.56136 18.0607 3.03175C18.3332 3.56675 18.3332 4.26675 18.3332 5.66675V14.3334C18.3332 15.7334 18.3332 16.4334 18.0607 16.9684C17.821 17.4388 17.4386 17.8212 16.9682 18.0609C16.8714 18.1098 16.7704 18.15 16.6665 18.1809M3.33317 18.1809C3.33317 17.5067 3.33734 17.1501 3.39734 16.8501C3.52593 16.2034 3.84342 15.6094 4.30963 15.1432C4.77584 14.677 5.36984 14.3595 6.0165 14.2309C6.33817 14.1667 6.72484 14.1667 7.49984 14.1667H12.4998C13.2748 14.1667 13.6615 14.1667 13.9832 14.2309C14.6298 14.3595 15.2238 14.677 15.69 15.1432C16.1563 15.6094 16.4737 16.2034 16.6023 16.8501C16.6623 17.1501 16.6665 17.5067 16.6665 18.1809M13.3332 7.91675C13.3332 8.8008 12.982 9.64865 12.3569 10.2738C11.7317 10.8989 10.8839 11.2501 9.99984 11.2501C9.11578 11.2501 8.26794 10.8989 7.64281 10.2738C7.01769 9.64865 6.6665 8.8008 6.6665 7.91675C6.6665 7.03269 7.01769 6.18485 7.64281 5.55973C8.26794 4.9346 9.11578 4.58341 9.99984 4.58341C10.8839 4.58341 11.7317 4.9346 12.3569 5.55973C12.982 6.18485 13.3332 7.03269 13.3332 7.91675Z" stroke="#1F3967" stroke-width="2" stroke-linecap="round" stroke-linejoin="round"/>
</g>
<defs>
<clipPath id="clip0_622_469">
<rect width="20" height="20" fill="white"/>
</clipPath>
</defs>
</svg>
