<svg width="20" height="20" viewBox="0 0 20 20" fill="none" xmlns="http://www.w3.org/2000/svg">
<g id="edit-01">
<path id="Vector" d="M2.39698 15.096C2.43498 14.752 2.45398 14.579 2.50698 14.418C2.55298 14.276 2.61798 14.14 2.70098 14.014C2.79398 13.873 2.91598 13.75 3.16098 13.505L14.168 2.49999C14.385 2.27326 14.6452 2.09218 14.9332 1.96735C15.2212 1.84253 15.5312 1.77648 15.845 1.77309C16.1589 1.76969 16.4703 1.82902 16.7609 1.94759C17.0515 2.06615 17.3155 2.24157 17.5374 2.46355C17.7593 2.68552 17.9347 2.94959 18.0532 3.24024C18.1716 3.5309 18.2309 3.84229 18.2274 4.15614C18.2239 4.47 18.1578 4.78 18.0328 5.06795C17.9079 5.3559 17.7268 5.616 17.5 5.83299L6.49498 16.84C6.24998 17.085 6.12698 17.207 5.98498 17.3C5.86003 17.3828 5.72447 17.4484 5.58198 17.495C5.42098 17.547 5.24798 17.566 4.90398 17.605L2.08398 17.918L2.39698 15.098V15.096Z" stroke="#677898" stroke-width="1.667" stroke-linecap="round" stroke-linejoin="round"/>
</g>
</svg>
